# xmcd CD database file
#
# Track frame offsets:
#	150
#	37296
#	72727
#	114845
#	154577
#	205270
#	243840
#
# Disc length: 3700 seconds
#
# Revision: 0
# Processed by: cddbd v1.5.2PL0 Copyright (c) Steve Scherf et al.
# Submitted via: CDex 1.51
#
DISCID=5e0e7207
DTITLE=David Arkenstone and Susan Craig Winsberg - Spa Touch
DYEAR=2012
DGENRE=New Age
TTITLE0=Beginning To Drift
TTITLE1=The Blue Pools
TTITLE2=Immersion
TTITLE3=Opening The Door
TTITLE4=Sacred Journey
TTITLE5=Shaman's Vision
TTITLE6=Temple Of The Sun
EXTD=YEAR: 2012
EXTT0=
EXTT1=
EXTT2=
EXTT3=
EXTT4=
EXTT5=
EXTT6=
PLAYORDER=
